<svg width="15" height="19" viewBox="0 0 15 19" fill="none" xmlns="http://www.w3.org/2000/svg">
<path d="M3.69225 10.1538H11.3077V8.65375H3.69225V10.1538ZM3.69225 13.0385H11.3077V11.5385H3.69225V13.0385ZM3.69225 15.923H8.30775V14.423H3.69225V15.923ZM1.80775 19C1.30258 19 0.875 18.825 0.525 18.475C0.175 18.125 0 17.6974 0 17.1923V1.80775C0 1.30258 0.175 0.875 0.525 0.525C0.875 0.175 1.30258 0 1.80775 0H9.75L15 5.25V17.1923C15 17.6974 14.825 18.125 14.475 18.475C14.125 18.825 13.6974 19 13.1923 19H1.80775ZM9 6V1.5H1.80775C1.73075 1.5 1.66025 1.53208 1.59625 1.59625C1.53208 1.66025 1.5 1.73075 1.5 1.80775V17.1923C1.5 17.2693 1.53208 17.3398 1.59625 17.4038C1.66025 17.4679 1.73075 17.5 1.80775 17.5H13.1923C13.2692 17.5 13.3398 17.4679 13.4038 17.4038C13.4679 17.3398 13.5 17.2693 13.5 17.1923V6H9Z" fill="#1C1B1F"/>
</svg>
