<svg width="23" height="23" viewBox="0 0 23 23" fill="none" xmlns="http://www.w3.org/2000/svg">
<path fill-rule="evenodd" clip-rule="evenodd" d="M10.8663 1.15608C11.2109 0.888078 11.6934 0.888078 12.038 1.15608L20.6257 7.83547C20.8582 8.01625 20.9941 8.29421 20.9941 8.58867V19.0848C20.9941 19.8441 20.6925 20.5722 20.1557 21.109C19.6189 21.6459 18.8907 21.9474 18.1315 21.9474H4.77275C4.01354 21.9474 3.28543 21.6459 2.74859 21.109C2.21175 20.5722 1.91016 19.8441 1.91016 19.0848V8.58867C1.91016 8.29421 2.0461 8.01625 2.27853 7.83547L10.8663 1.15608ZM3.81855 9.05535V19.0848C3.81855 19.3379 3.91908 19.5806 4.09803 19.7596C4.27698 19.9385 4.51968 20.039 4.77275 20.039H18.1315C18.3846 20.039 18.6273 19.9385 18.8062 19.7596C18.9852 19.5806 19.0857 19.3379 19.0857 19.0848V9.05535L11.4521 3.11811L3.81855 9.05535Z" fill="black"/>
<path fill-rule="evenodd" clip-rule="evenodd" d="M7.63281 11.4503C7.63281 10.9233 8.06002 10.4961 8.58701 10.4961H14.3122C14.8392 10.4961 15.2664 10.9233 15.2664 11.4503V20.9923C15.2664 21.5193 14.8392 21.9465 14.3122 21.9465C13.7852 21.9465 13.358 21.5193 13.358 20.9923V12.4045H9.54121V20.9923C9.54121 21.5193 9.114 21.9465 8.58701 21.9465C8.06002 21.9465 7.63281 21.5193 7.63281 20.9923V11.4503Z" fill="black"/>
</svg>
