<svg width="17" height="19" viewBox="0 0 17 19" fill="none" xmlns="http://www.w3.org/2000/svg">
<path d="M8.5 15.25C8.72883 15.25 8.92067 15.1726 9.0755 15.0177C9.23033 14.8629 9.30775 14.6711 9.30775 14.4423C9.30775 14.2134 9.23033 14.0216 9.0755 13.8668C8.92067 13.7121 8.72883 13.6348 8.5 13.6348C8.27117 13.6348 8.07933 13.7121 7.9245 13.8668C7.76967 14.0216 7.69225 14.2134 7.69225 14.4423C7.69225 14.6711 7.76967 14.8629 7.9245 15.0177C8.07933 15.1726 8.27117 15.25 8.5 15.25ZM7.75 11.7692H9.25V5.73075H7.75V11.7692ZM1.80775 19C1.31058 19 0.885 18.823 0.531 18.469C0.177 18.115 0 17.6894 0 17.1923V3.80775C0 3.31058 0.177 2.885 0.531 2.531C0.885 2.177 1.31058 2 1.80775 2H6.25775C6.32058 1.44483 6.56292 0.972749 6.98475 0.583749C7.40642 0.194583 7.91308 0 8.50475 0C9.09642 0 9.60317 0.194583 10.025 0.583749C10.4468 0.972749 10.6859 1.44483 10.7423 2H15.1923C15.6894 2 16.115 2.177 16.469 2.531C16.823 2.885 17 3.31058 17 3.80775V17.1923C17 17.6894 16.823 18.115 16.469 18.469C16.115 18.823 15.6894 19 15.1923 19H1.80775ZM1.80775 17.5H15.1923C15.2692 17.5 15.3398 17.4679 15.4038 17.4038C15.4679 17.3398 15.5 17.2693 15.5 17.1923V3.80775C15.5 3.73075 15.4679 3.66025 15.4038 3.59625C15.3398 3.53208 15.2692 3.5 15.1923 3.5H1.80775C1.73075 3.5 1.66025 3.53208 1.59625 3.59625C1.53208 3.66025 1.5 3.73075 1.5 3.80775V17.1923C1.5 17.2693 1.53208 17.3398 1.59625 17.4038C1.66025 17.4679 1.73075 17.5 1.80775 17.5ZM8.5 2.84625C8.71667 2.84625 8.89583 2.77542 9.0375 2.63375C9.17917 2.49208 9.25 2.31292 9.25 2.09625C9.25 1.87958 9.17917 1.70042 9.0375 1.55875C8.89583 1.41708 8.71667 1.34625 8.5 1.34625C8.28333 1.34625 8.10417 1.41708 7.9625 1.55875C7.82083 1.70042 7.75 1.87958 7.75 2.09625C7.75 2.31292 7.82083 2.49208 7.9625 2.63375C8.10417 2.77542 8.28333 2.84625 8.5 2.84625Z" fill="black"/>
</svg>
