<svg width="20" height="21" viewBox="0 0 20 21" fill="none" xmlns="http://www.w3.org/2000/svg">
<path d="M1.5 6.423H15.5V3.923C15.5 3.846 15.4679 3.7755 15.4038 3.7115C15.3398 3.64733 15.2693 3.61525 15.1923 3.61525H1.80775C1.73075 3.61525 1.66025 3.64733 1.59625 3.7115C1.53208 3.7755 1.5 3.846 1.5 3.923V6.423ZM1.80775 19.1152C1.30258 19.1152 0.875 18.9403 0.525 18.5903C0.175 18.2402 0 17.8127 0 17.3075V3.923C0 3.41783 0.175 2.99025 0.525 2.64025C0.875 2.29025 1.30258 2.11525 1.80775 2.11525H3.19225V0H4.73075V2.11525H12.3078V0H13.8078V2.11525H15.1923C15.6974 2.11525 16.125 2.29025 16.475 2.64025C16.825 2.99025 17 3.41783 17 3.923V9.3865C16.7602 9.28133 16.5153 9.19633 16.2653 9.1315C16.0153 9.06683 15.7602 9.01592 15.5 8.97875V7.923H1.5V17.3075C1.5 17.3845 1.53208 17.455 1.59625 17.519C1.66025 17.5832 1.73075 17.6152 1.80775 17.6152H8.30975C8.39425 17.8921 8.4965 18.1539 8.6165 18.4007C8.73633 18.6476 8.8725 18.8857 9.025 19.1152H1.80775ZM14.6923 20.1152C13.4436 20.1152 12.3814 19.6774 11.5058 18.8018C10.6301 17.9261 10.1923 16.8639 10.1923 15.6152C10.1923 14.3666 10.6301 13.3044 11.5058 12.4288C12.3814 11.5531 13.4436 11.1152 14.6923 11.1152C15.9411 11.1152 17.0033 11.5531 17.8788 12.4288C18.7544 13.3044 19.1923 14.3666 19.1923 15.6152C19.1923 16.8639 18.7544 17.9261 17.8788 18.8018C17.0033 19.6774 15.9411 20.1152 14.6923 20.1152ZM16.3578 17.9037L16.9808 17.2808L15.1348 15.4345V12.673H14.25V15.796L16.3578 17.9037Z" fill="#1C1B1F"/>
</svg>
