<svg width="21" height="18" viewBox="0 0 21 18" fill="none" xmlns="http://www.w3.org/2000/svg">
<path d="M0 14.6155V12.3923C0 11.8769 0.133 11.417 0.399 11.0125C0.665 10.608 1.02025 10.2933 1.46475 10.0685C2.41508 9.60367 3.37067 9.24525 4.3315 8.99325C5.2925 8.74142 6.34858 8.6155 7.49975 8.6155C7.96908 8.6155 8.42967 8.63825 8.8815 8.68375C9.3335 8.72925 9.77808 8.79942 10.2153 8.89425C10.0584 9.10692 9.92275 9.329 9.80825 9.5605C9.69358 9.792 9.59592 10.0328 9.51525 10.2828C9.18325 10.2186 8.84983 10.1747 8.515 10.151C8.18033 10.1273 7.84192 10.1155 7.49975 10.1155C6.50242 10.1155 5.56783 10.2248 4.696 10.4433C3.82417 10.6619 2.97675 10.9834 2.15375 11.4078C1.92675 11.5296 1.761 11.6719 1.6565 11.8348C1.552 11.9976 1.49975 12.1834 1.49975 12.3923V13.1155H9.27675C9.33058 13.3923 9.39658 13.6542 9.47475 13.901C9.55292 14.1478 9.65483 14.386 9.7805 14.6155H0ZM7.49975 7C6.53725 7 5.71333 6.65733 5.028 5.972C4.34267 5.2865 4 4.4625 4 3.5C4 2.5375 4.34267 1.71358 5.028 1.02825C5.71333 0.34275 6.53725 0 7.49975 0C8.46225 0 9.28625 0.34275 9.97175 1.02825C10.6571 1.71358 10.9998 2.5375 10.9998 3.5C10.9998 4.4625 10.6571 5.2865 9.97175 5.972C9.28625 6.65733 8.46225 7 7.49975 7ZM16.1343 3.5C16.1343 4.4625 15.7916 5.2865 15.1062 5.972C14.4209 6.65733 13.597 7 12.6345 7C12.5217 7 12.3781 6.98717 12.2038 6.9615C12.0293 6.93583 11.8857 6.90767 11.773 6.877C12.1673 6.40283 12.4704 5.87683 12.6823 5.299C12.8939 4.72117 12.9998 4.12117 12.9998 3.499C12.9998 2.87667 12.8918 2.27892 12.6758 1.70575C12.4598 1.13275 12.1588 0.60525 11.773 0.12325C11.9165 0.0719165 12.0601 0.0385832 12.2038 0.0232498C12.3473 0.00774982 12.4908 0 12.6345 0C13.597 0 14.4209 0.34275 15.1062 1.02825C15.7916 1.71358 16.1343 2.5375 16.1343 3.5ZM7.49975 5.5C8.04975 5.5 8.52058 5.30417 8.91225 4.9125C9.30392 4.52083 9.49975 4.05 9.49975 3.5C9.49975 2.95 9.30392 2.47917 8.91225 2.0875C8.52058 1.69583 8.04975 1.5 7.49975 1.5C6.94975 1.5 6.47892 1.69583 6.08725 2.0875C5.69558 2.47917 5.49975 2.95 5.49975 3.5C5.49975 4.05 5.69558 4.52083 6.08725 4.9125C6.47892 5.30417 6.94975 5.5 7.49975 5.5ZM15.0493 14.3078C15.6599 14.3078 16.1688 14.1171 16.5758 13.7358C16.9827 13.3543 17.1914 12.827 17.2017 12.154C17.2121 11.5423 17.0086 11.0304 16.5913 10.6183C16.1739 10.2061 15.6599 10 15.0493 10C14.4386 10 13.9268 10.2066 13.5138 10.6198C13.1006 11.0328 12.894 11.5446 12.894 12.1553C12.894 12.7659 13.1006 13.2773 13.5138 13.6895C13.9268 14.1017 14.4386 14.3078 15.0493 14.3078ZM15.048 15.8078C14.0432 15.8078 13.183 15.4501 12.4675 14.7348C11.7518 14.0194 11.394 13.1595 11.394 12.155C11.394 11.1505 11.7517 10.2902 12.467 9.574C13.1823 8.858 14.0422 8.5 15.0468 8.5C16.0514 8.5 16.9118 8.85783 17.6278 9.5735C18.3438 10.289 18.7017 11.1492 18.7017 12.154C18.7017 12.5303 18.6511 12.8863 18.5497 13.2218C18.4484 13.5573 18.2997 13.8686 18.1038 14.1558L20.6055 16.648L19.5613 17.702L17.0595 15.2C16.7723 15.4025 16.4611 15.5544 16.1258 15.6558C15.7906 15.7571 15.4313 15.8078 15.048 15.8078Z" fill="#1C1B1F"/>
</svg>
